<svg width="60" height="60" viewBox="0 0 60 60" fill="none" xmlns="http://www.w3.org/2000/svg">
<path d="M54.999 43.4398C54.9988 43.4281 54.9986 43.4163 54.9986 43.4046V11.4149C54.9986 11.4031 54.9988 11.3913 54.999 11.3796C55.0094 10.9401 54.9355 10.5036 54.7826 10.0956C54.6296 9.6876 54.4012 9.31748 54.1125 9.00536C53.8238 8.69334 53.4808 8.44554 53.1042 8.27389C52.7328 8.10458 52.3347 8.01202 51.9319 8H8.0681C7.66526 8.01202 7.26723 8.10458 6.89582 8.27388C6.51925 8.44554 6.17617 8.69334 5.88753 9.00536C5.5988 9.31748 5.37039 9.6876 5.21745 10.0956C5.0645 10.5036 4.99062 10.9401 5.00095 11.3796C5.00123 11.3913 5.00137 11.4031 5.00137 11.4149V43.4046C5.00137 43.4163 5.00123 43.4281 5.00095 43.4398C4.99062 43.8793 5.0645 44.3158 5.21745 44.7238C5.37039 45.1318 5.5988 45.5019 5.88753 45.8141C6.17617 46.1261 6.51924 46.3739 6.89582 46.5455C7.26721 46.7148 7.66525 46.8074 8.06808 46.8194H26.3634C26.8405 46.8194 27.3002 46.976 27.6763 47.2589L40.4837 56.5573V49.0105V49.0092C40.4835 48.4581 40.6897 47.9203 41.0714 47.5098C41.4548 47.0976 41.9872 46.8454 42.5608 46.8208C42.5823 46.8199 42.6038 46.8194 42.6252 46.8194H51.9319C52.3348 46.8074 52.7328 46.7148 53.1042 46.5455C53.4808 46.3739 53.8238 46.1261 54.1125 45.8141C54.4012 45.5019 54.6296 45.1318 54.7826 44.7238C54.9355 44.3158 55.0094 43.8793 54.999 43.4398Z" fill="white" stroke="#00B8F5" stroke-width="3" stroke-linecap="round" stroke-linejoin="round"/>
<path d="M28.771 16.7588L26.4584 22.1552C26.3354 22.4318 26.0922 22.6312 25.7933 22.6886L20.0114 23.7735C19.2561 23.9143 19.0134 24.8593 19.589 25.3701L24.0404 29.3141C24.2652 29.5173 24.3819 29.8175 24.3517 30.1221L23.681 35.9726C23.5946 36.7284 24.4209 37.274 25.0763 36.8929L30.1409 33.9354C30.4009 33.7851 30.7219 33.7714 31.0005 33.8988L36.371 36.4297C36.8408 36.6513 37.3234 36.4321 37.5433 36.0366C37.6507 35.8524 37.7088 35.6406 37.6524 35.4007L37.6017 35.188L36.321 29.6318C36.2533 29.3373 36.3325 29.0278 36.5429 28.8063L36.667 28.6713L40.53 24.523C41.0425 23.9666 40.6921 23.044 39.9296 22.9724L34.0522 22.364C33.7527 22.3343 33.4791 22.158 33.33 21.8901L30.4195 16.6906C30.1986 16.297 29.7731 16.1738 29.3983 16.2632C29.1375 16.3264 28.8938 16.4714 28.771 16.7588Z" fill="#012A72"/>
</svg>
