<svg width="50" height="50" viewBox="0 0 50 50" fill="none" xmlns="http://www.w3.org/2000/svg">
<path fill-rule="evenodd" clip-rule="evenodd" d="M48.357 31.2123C48.357 34.8926 45.3405 37.8768 41.6202 37.8768C37.8984 37.8768 34.8818 34.8926 34.8818 31.2123C34.8818 27.5321 37.8984 24.5479 41.6202 24.5479C45.3405 24.5479 48.357 27.5321 48.357 31.2123Z" stroke="white" stroke-width="2.03807" stroke-linecap="round" stroke-linejoin="round"/>
<path fill-rule="evenodd" clip-rule="evenodd" d="M15.6363 31.2123C15.6363 34.8926 12.6198 37.8768 8.89949 37.8768C5.17767 37.8768 2.1611 34.8926 2.1611 31.2123C2.1611 27.5321 5.17767 24.5479 8.89949 24.5479C12.6198 24.5479 15.6363 27.5321 15.6363 31.2123Z" stroke="white" stroke-width="2.03807" stroke-linecap="round" stroke-linejoin="round"/>
<path fill-rule="evenodd" clip-rule="evenodd" d="M30.0499 17.364H24.0045C21.5777 17.364 19.6113 19.3304 19.6113 21.7572V22.5764H33.587V20.9011C33.587 18.947 32.0025 17.364 30.0499 17.364Z" stroke="white" stroke-width="2.03807" stroke-linecap="round" stroke-linejoin="round"/>
<path d="M29.748 13.0056L32.104 13.7139C33.8702 14.2437 35.3007 15.531 35.9998 17.2202L41.4955 30.4706" stroke="white" stroke-width="2.03807" stroke-linecap="round" stroke-linejoin="round"/>
<path fill-rule="evenodd" clip-rule="evenodd" d="M12.9225 22.5777H3.32465V21.543C3.32465 19.8384 4.72129 18.4556 6.44593 18.4556H7.31902C8.24139 18.4556 9.12527 18.8174 9.77662 19.4642L12.9225 22.5777Z" stroke="white" stroke-width="2.03807" stroke-linecap="round" stroke-linejoin="round"/>
<path d="M7.20795 22.5773H22.8082" stroke="white" stroke-width="2.03807" stroke-linecap="round" stroke-linejoin="round"/>
<path d="M32.2725 22.8464L30.0474 31.0384C29.7302 32.2026 28.6646 33.011 27.4451 33.011L18.7326 32.8663C16.7092 32.8324 14.7197 32.3412 12.9166 31.4296L9.64594 29.7788" stroke="white" stroke-width="2.03807" stroke-linecap="round" stroke-linejoin="round"/>
<path fill-rule="evenodd" clip-rule="evenodd" d="M41.1636 19.8338C39.3805 20.0262 37.7929 18.8791 37.6158 17.273C37.4403 15.6669 38.743 14.2102 40.5261 14.0193" fill="white"/>
</svg>
