<svg width="57" height="57" viewBox="0 0 57 57" fill="none" xmlns="http://www.w3.org/2000/svg">
<path d="M28.3988 41.0623L42.5103 40.8022L42.5666 41.7164C42.6811 43.5391 44.1932 44.9561 46.0178 44.9561C47.9298 44.9561 49.4749 43.4071 49.4749 41.499V29.2024L46.6525 24.3555L44.1952 17.719C43.1295 14.8443 40.3441 12.9285 37.2287 12.9285H28.3988H29.7206H20.8907C17.7714 12.9285 14.9899 14.8443 13.9242 17.719L11.4629 24.3555L8.64258 29.2024V41.499C8.64258 43.4071 10.1896 44.9561 12.1016 44.9561C13.9262 44.9561 15.4363 43.5391 15.5528 41.7164L15.6091 40.8022L29.7206 41.0623" stroke="white" stroke-width="2.32922"/>
<path d="M9.34857 32.0135H15.4338" stroke="white" stroke-width="2.32922" stroke-linecap="round" stroke-linejoin="round"/>
<path d="M42.686 32.0135H48.7712" stroke="white" stroke-width="2.32922" stroke-linecap="round" stroke-linejoin="round"/>
<path d="M42.402 41.7164L42.3457 40.8022H15.4445L15.3882 41.7164C15.2717 43.5391 13.7615 44.9561 11.9369 44.9561C10.025 44.9561 8.47797 43.4071 8.47797 41.499V31.4501C8.47797 29.9788 8.86812 28.5308 9.60961 27.2594L11.2983 24.3555L13.7596 17.719C14.8253 14.8443 17.6068 12.9285 20.7261 12.9285H28.2341H29.556H37.0641C40.1795 12.9285 42.9649 14.8443 44.0305 17.719L46.4879 24.3555L48.1786 27.2594C48.9201 28.5308 49.3102 29.9788 49.3102 31.4501V41.499C49.3102 43.4071 47.7652 44.9561 45.8532 44.9561C44.0286 44.9561 42.5165 43.5391 42.402 41.7164Z" stroke="white" stroke-width="2.32922" stroke-linecap="round" stroke-linejoin="round"/>
<path d="M46.0372 24.2686H11.6415" stroke="white" stroke-width="2.32922" stroke-linecap="round" stroke-linejoin="round"/>
<path fill-rule="evenodd" clip-rule="evenodd" d="M11.0392 24.2941L6.43108 23.9137C5.94969 23.8748 5.59254 23.4595 5.63524 22.9897L5.82158 20.7905C5.86817 20.2606 6.34179 19.8685 6.87946 19.9131L10.2822 20.1946C10.8897 20.2451 11.342 20.7691 11.2915 21.365L11.0392 24.2941Z" stroke="white" stroke-width="2.32922"/>
<path fill-rule="evenodd" clip-rule="evenodd" d="M46.8089 24.2941L51.4169 23.9137C51.8983 23.8748 52.2555 23.4595 52.2128 22.9897L52.0264 20.7905C51.9799 20.2606 51.5062 19.8685 50.9686 19.9131L47.5659 20.1946C46.9583 20.2451 46.5061 20.7691 46.5565 21.365L46.8089 24.2941Z" stroke="white" stroke-width="2.32922"/>
<path d="M23.6806 32.0135H33.9974" stroke="white" stroke-width="2.32922" stroke-linecap="round" stroke-linejoin="round"/>
<path d="M9.73533 40.3496H14.857V43.5152H9.73533V40.3496Z" stroke="white" stroke-width="1.55281"/>
<path d="M43.0101 40.3496H48.1318V43.5152H43.0101V40.3496Z" stroke="white" stroke-width="1.55281"/>
</svg>
