<svg width="60" height="60" viewBox="0 0 60 60" fill="none" xmlns="http://www.w3.org/2000/svg">
<circle cx="30" cy="32" r="26.5" fill="white" stroke="#00B8F5" stroke-width="3"/>
<path d="M19.2168 18.4237C19.7114 18.0646 21.2541 17.0698 21.2541 17.0698C22.0011 16.5259 22.9918 16.7353 23.455 17.5346L27.4409 24.4094C27.9042 25.2087 27.5994 26.1845 26.7631 26.578C26.7631 26.578 23.7685 27.9879 22.7696 28.4573C22.7065 28.4876 22.5829 28.5614 22.5859 28.6728C22.589 28.799 22.6126 29.016 22.6773 29.3156C22.9897 30.431 23.472 31.5848 24.1138 32.7284C24.6376 33.6272 25.3364 34.6559 26.2681 35.8015C26.3322 35.8764 26.5928 36.173 26.659 36.2458C27.6764 37.3155 28.6081 38.14 29.4325 38.7736C30.4853 39.557 31.5678 40.1814 32.6344 40.6339C32.9238 40.7365 33.1357 40.7868 33.2609 40.8068C33.3701 40.8242 33.4599 40.7108 33.4969 40.6518C34.0904 39.7217 35.8702 36.9307 35.8702 36.9307C36.3673 36.1519 37.3734 35.9739 38.1076 36.5352L44.4185 41.3644C45.1522 41.9257 45.2338 42.9349 44.5991 43.6064C44.5991 43.6064 43.4166 45.0101 42.9969 45.4549C39.8981 48.7425 37.4011 49.3474 35.3638 48.7189C31.7525 47.8714 26.9555 44.6295 22.6639 39.8274C22.6516 39.814 22.2186 39.322 22.2073 39.3082C17.9916 34.4399 15.3874 29.2694 15.0073 25.5791C14.6435 23.4782 15.5608 21.0787 19.2168 18.4237Z" fill="#012A72"/>
<path d="M49.5987 15.2001L13.1987 51.6001" stroke="#00B8F5" stroke-width="3"/>
</svg>
