<svg width="60" height="60" viewBox="0 0 60 60" fill="none" xmlns="http://www.w3.org/2000/svg">
<rect width="53" height="53" transform="translate(3 4)"/>
<rect x="3" y="4" width="53" height="19.4333" rx="9.71667" fill="#012A72"/>
<path d="M24.5403 36.306C24.5403 38.1693 24.5367 39.9639 24.5403 41.7585C24.5403 42.4529 24.9989 43.0786 25.6322 43.2745C26.5313 43.553 27.4812 43.0373 27.656 42.1607C27.7033 41.9235 27.7033 41.6759 27.7033 41.4353C27.7069 35.3331 27.7033 29.2309 27.7142 23.1287C27.7142 22.7746 27.7615 22.3861 27.9217 22.0733C28.231 21.4579 28.999 21.1829 29.6869 21.3582C30.3676 21.5301 30.8371 22.1042 30.8408 22.8158C30.848 25.4939 30.8444 28.172 30.8444 30.8501C30.8444 32.0981 30.8444 33.346 30.8444 34.594C30.8444 35.5256 31.1938 36 32.1256 36.2957C34.3823 37.0108 36.6426 37.719 38.9029 38.4272C39.9111 38.7435 40.3078 39.2454 40.3114 40.2458C40.3151 41.9647 40.3224 43.6837 40.3078 45.406C40.2714 49.8099 36.8427 53.5263 32.2093 54.1966C27.6924 54.8498 23.3428 52.2233 21.9051 48.0154C21.4938 46.8121 21.381 45.5951 21.3883 44.3472C21.3992 42.2638 21.3883 40.177 21.3919 38.0937C21.3955 36.8561 21.9706 36.3129 23.2773 36.3094C23.6777 36.306 24.0744 36.306 24.5403 36.306Z" fill="white"/>
<path d="M39.7595 35.6887C37.9228 35.096 36.0862 34.4965 34.2461 33.9174C33.9587 33.8259 33.864 33.7006 33.871 33.4127C33.8921 32.6947 33.8781 31.9733 33.8781 31.252C33.8781 29.9955 33.8781 28.739 33.8781 27.4215C33.8781 27.4215 33.8781 27.4215 33.8816 27.4215V24.4479C33.8816 24.3226 33.8816 24.204 33.8816 24.0821V23.4793C33.8816 23.3235 33.8816 23.1711 33.8816 23.0153C33.8605 20.5835 31.8627 18.626 29.3741 18.6023C26.8435 18.5786 24.8071 20.4921 24.758 22.9475C24.7545 23.1744 24.7545 23.4014 24.7545 23.6283V23.7739C24.7545 23.994 24.758 24.2142 24.758 24.4411C24.758 24.4411 24.758 24.4411 24.7545 24.4411V28.8135C24.7545 30.2833 24.7545 31.7227 24.7545 33.1587C24.7545 33.2163 24.7405 33.2705 24.723 33.3755C24.2498 33.3755 23.7871 33.3755 23.328 33.3755C20.6852 33.389 18.6944 35.2992 18.6873 37.8427C18.6803 40.1829 18.6873 42.5198 18.6838 44.8601C18.6838 46.479 19.0028 48.0369 19.6197 49.5407C22.2169 55.8807 29.623 58.7866 35.9705 55.8536C40.1205 53.9333 42.5004 50.6685 42.9105 46.2182C43.0997 44.1489 42.9876 42.0524 42.9876 39.9696C42.9876 38.0086 41.6907 36.3118 39.7595 35.6887ZM39.9417 45.2902C39.9067 49.6287 36.605 53.2898 32.1431 53.9503C27.7934 54.5938 23.6049 52.0062 22.2204 47.8608C21.8243 46.6754 21.7157 45.4765 21.7227 44.2471C21.7332 42.1947 21.7227 40.1389 21.7262 38.0865C21.7297 36.8673 22.2835 36.3321 23.5418 36.3288C23.9273 36.3288 24.3129 36.3288 24.758 36.3288C24.758 38.1644 24.7545 39.9323 24.758 41.7002C24.758 42.3844 25.1997 43.0008 25.8095 43.1938C26.6753 43.4681 27.5901 42.9601 27.7583 42.0965C27.8039 41.8628 27.8039 41.6189 27.8039 41.3819C27.8074 35.3703 27.8039 29.3587 27.8144 23.3472C27.8144 22.9983 27.86 22.6156 28.0142 22.3074C28.3121 21.7012 29.0517 21.4302 29.7141 21.603C30.3695 21.7723 30.8217 22.3379 30.8252 23.039C30.8322 25.6773 30.8287 28.3156 30.8287 30.9539C30.8287 32.1833 30.8287 33.4127 30.8287 34.6421C30.8287 35.56 31.1652 36.0273 32.0625 36.3186C34.2356 37.0231 36.4122 37.7207 38.5888 38.4184C39.5597 38.73 39.9417 39.2245 39.9452 40.21C39.9452 41.9 39.9522 43.5968 39.9417 45.2902Z" fill="#00B8F5"/>
<path d="M29.2339 11.5513C33.1408 11.7283 36.0995 13.4183 38.0798 16.7548C38.5623 17.5664 38.3411 18.4614 37.5939 18.8722C36.8467 19.283 36.0023 18.9958 35.5366 18.1675C32.8359 13.3849 25.977 13.2312 23.0585 17.887C22.9647 18.0373 22.8809 18.1943 22.7871 18.3445C22.3549 19.0225 21.5306 19.2496 20.847 18.8756C20.1467 18.4948 19.8619 17.6332 20.2573 16.9251C21.8824 14.0228 24.3418 12.266 27.6356 11.7016C28.1751 11.608 28.7246 11.5947 29.2339 11.5513Z" fill="white"/>
</svg>
