<svg width="60" height="60" viewBox="0 0 60 60" fill="none" xmlns="http://www.w3.org/2000/svg">
<path d="M54.5 34C54.5 47.531 43.531 58.5 30 58.5C16.469 58.5 5.5 47.531 5.5 34C5.5 20.469 16.469 9.5 30 9.5C43.531 9.5 54.5 20.469 54.5 34Z" fill="white" stroke="#00B8F5" stroke-width="3"/>
<path d="M53.0366 16.4262C50.368 14.1069 47.8554 11.913 45.3428 9.71909C47.7617 8.13634 49.9622 8.16768 51.8974 9.79744C53.8482 11.4272 54.2227 13.6054 53.0366 16.4262Z" fill="#00B8F5"/>
<path d="M6.68371 16.7236C5.34157 13.6678 5.73173 11.4268 7.63569 9.82841C9.60207 8.16731 11.8182 8.13596 14.2996 9.82841C12.9262 10.9097 11.5216 11.897 10.2731 13.0252C9.05586 14.1065 7.99463 15.3445 6.68371 16.7236Z" fill="#00B8F5"/>
<path d="M24.4547 6H35.7541C37.6031 6 39.1044 4.65566 39.1044 3C39.1044 1.34434 37.6031 0 35.7541 0H24.4547C22.6057 0 21.1044 1.34434 21.1044 3C21.1044 4.65566 22.6057 6 24.4547 6Z" fill="#00B8F5"/>
<mask id="path-5-inside-1_1494_6106" fill="white">
<path d="M26.9141 20.8623H38.8191L29.5825 35.2304H20.7563L26.9141 20.8623Z"/>
</mask>
<path d="M26.9141 20.8623H38.8191L29.5825 35.2304H20.7563L26.9141 20.8623Z" fill="#00BAF2"/>
<path d="M26.9141 20.8623V2.07647H14.5268L9.6472 13.4622L26.9141 20.8623ZM38.8191 20.8623L54.6213 31.0209L73.2285 2.07647H38.8191V20.8623ZM29.5825 35.2304V54.0162H39.8386L45.3847 45.389L29.5825 35.2304ZM20.7563 35.2304L3.48944 27.8303L-7.7331 54.0162H20.7563V35.2304ZM26.9141 39.6481H38.8191V2.07647H26.9141V39.6481ZM23.0169 10.7037L13.7802 25.0718L45.3847 45.389L54.6213 31.0209L23.0169 10.7037ZM29.5825 16.4446H20.7563V54.0162H29.5825V16.4446ZM38.0233 42.6305L44.181 28.2624L9.6472 13.4622L3.48944 27.8303L38.0233 42.6305Z" fill="#012B72" mask="url(#path-5-inside-1_1494_6106)"/>
<path d="M28.3512 31.7415L20.9619 51.8568L37.5879 31.7415H28.3512Z" fill="#012B72"/>
</svg>
